<svg width="84" height="84" viewBox="0 0 84 84" fill="none" xmlns="http://www.w3.org/2000/svg">
<path d="M41.6612 0C44.902 0.000196986 48.0318 1.18071 50.4654 3.32083L51.1071 3.925L54.0154 6.83333C54.8136 7.6263 55.8558 8.12689 56.9737 8.25417L57.5362 8.2875H61.7029C65.108 8.28731 68.3841 9.58988 70.8594 11.9281C73.3348 14.2663 74.8217 17.4629 75.0154 20.8625L75.0362 21.6208V25.7875C75.0362 26.9125 75.4196 28.0083 76.1112 28.8833L76.4862 29.3L79.3904 32.2083C81.7976 34.6019 83.2011 37.8234 83.3149 41.2161C83.4288 44.6088 82.2442 47.9172 80.0029 50.4667L79.3987 51.1083L76.4904 54.0167C75.6974 54.8148 75.1968 55.8571 75.0696 56.975L75.0362 57.5375V61.7042C75.0364 65.1092 73.7339 68.3854 71.3957 70.8607C69.0574 73.336 65.8608 74.823 62.4612 75.0167L61.7029 75.0375H57.5362C56.4128 75.0379 55.3223 75.4166 54.4404 76.1125L54.0237 76.4875L51.1154 79.3917C48.7219 81.7988 45.5003 83.2024 42.1076 83.3162C38.7149 83.43 35.4065 82.2455 32.8571 80.0042L32.2154 79.4L29.3071 76.4917C28.5089 75.6987 27.4666 75.1981 26.3487 75.0708L25.7862 75.0375H21.6196C18.2145 75.0377 14.9384 73.7351 12.463 71.3969C9.98768 69.0587 8.50072 65.8621 8.30706 62.4625L8.28622 61.7042V57.5375C8.28585 56.4141 7.90717 55.3235 7.21122 54.4417L6.83622 54.025L3.93205 51.1167C1.52489 48.7231 0.121316 45.5016 0.00750313 42.1089C-0.10631 38.7162 1.07821 35.4078 3.31955 32.8583L3.92372 32.2167L6.83205 29.3083C7.62502 28.5102 8.12561 27.4679 8.25289 26.35L8.28622 25.7875V21.6208L8.30706 20.8625C8.4931 17.5935 9.8755 14.5073 12.1908 12.192C14.506 9.87678 17.5922 8.49438 20.8612 8.30833L21.6196 8.2875H25.7862C26.9096 8.28713 28.0002 7.90845 28.8821 7.2125L29.2987 6.8375L32.2071 3.93333C33.446 2.68704 34.919 1.69794 36.5415 1.02291C38.164 0.347889 39.9039 0.000254484 41.6612 0ZM57.0654 30.3417C56.284 29.5605 55.2244 29.1217 54.1196 29.1217C53.0147 29.1217 51.9551 29.5605 51.1737 30.3417L37.4529 44.0583L32.0654 38.675L31.6737 38.3292C30.8363 37.6816 29.7837 37.3771 28.7299 37.4775C27.676 37.5779 26.6999 38.0757 25.9998 38.8697C25.2996 39.6637 24.928 40.6945 24.9603 41.7526C24.9926 42.8107 25.4264 43.8168 26.1737 44.5667L34.5071 52.9L34.8987 53.2458C35.7004 53.8677 36.7015 54.1757 37.7141 54.112C38.7267 54.0484 39.6813 53.6174 40.3987 52.9L57.0654 36.2333L57.4112 35.8417C58.0331 35.04 58.3411 34.0389 58.2774 33.0263C58.2138 32.0137 57.7828 31.0591 57.0654 30.3417Z" fill="#7367F0"/>
</svg>
