<svg width="92" height="43" viewBox="0 0 92 43" fill="none" xmlns="http://www.w3.org/2000/svg">
<path d="M48.0115 0.903979C47.7201 0.351931 47.1303 0 46.4907 0C45.8511 0 45.2612 0.351931 44.9699 0.903979L39.7394 10.8547L28.3758 12.6074C27.7433 12.704 27.2174 13.1388 27.0184 13.7322C26.8195 14.3257 26.9829 14.9743 27.4306 15.416L35.5606 23.3171L33.7698 34.3512C33.6703 34.9654 33.9332 35.5864 34.452 35.9522C34.9708 36.3179 35.653 36.3731 36.2287 36.0902L46.4907 31.0251L56.7456 36.0902C57.3141 36.3731 58.0035 36.3179 58.5223 35.9522C59.041 35.5864 59.304 34.9723 59.2045 34.3512L57.4065 23.3171L65.5365 15.416C65.9914 14.9743 66.1477 14.3257 65.9487 13.7322C65.7497 13.1388 65.2309 12.704 64.5913 12.6074L53.2349 10.8547L48.0115 0.903979Z" fill="#FFD51B"/>
<path d="M78.2288 17.1828C78.0061 16.7798 77.5554 16.5229 77.0667 16.5229C76.578 16.5229 76.1272 16.7798 75.9046 17.1828L71.9078 24.4468L63.2246 25.7263C62.7413 25.7969 62.3395 26.1142 62.1874 26.5475C62.0354 26.9807 62.1603 27.4542 62.5024 27.7766L68.7148 33.5445L67.3463 41.5994C67.2703 42.0477 67.4712 42.5011 67.8676 42.7681C68.264 43.0351 68.7854 43.0754 69.2252 42.8689L77.0667 39.1714L84.9027 42.8689C85.3372 43.0754 85.8639 43.0351 86.2603 42.7681C86.6568 42.5011 86.8577 42.0528 86.7817 41.5994L85.4078 33.5445L91.6201 27.7766C91.9677 27.4542 92.0871 26.9807 91.9351 26.5475C91.783 26.1142 91.3866 25.7969 90.8979 25.7263L82.2201 24.4468L78.2288 17.1828Z" fill="#FFD51B"/>
<path d="M16.1053 17.1828C15.8826 16.7798 15.4319 16.5229 14.9432 16.5229C14.4544 16.5229 14.0037 16.7798 13.7811 17.1828L9.78429 24.4468L1.10111 25.7263C0.617802 25.7969 0.215954 26.1142 0.0639031 26.5475C-0.0881476 26.9807 0.0367514 27.4542 0.378866 27.7766L6.59123 33.5445L5.22277 41.5994C5.14674 42.0477 5.34767 42.5011 5.74409 42.7681C6.1405 43.0351 6.66182 43.0754 7.10168 42.8689L14.9432 39.1714L22.7792 42.8689C23.2136 43.0754 23.7404 43.0351 24.1368 42.7681C24.5332 42.5011 24.7341 42.0528 24.6581 41.5994L23.2842 33.5445L29.4966 27.7766C29.8441 27.4542 29.9636 26.9807 29.8116 26.5475C29.6595 26.1142 29.2631 25.7969 28.7743 25.7263L20.0966 24.4468L16.1053 17.1828Z" fill="#FFD51B"/>
</svg>
